{
  "title": "Furious 7 2015 720p HDCAM NEW ENG x264 Pimp4003",
  "uid": 11795157,
  "size": 2064564596,
  "categoryP": "video",
  "categoryS": "movies",
  "magnet": "?xt=urn:btih:8dd79aba198e149ffe9e98980f0f7369e889dcc1&amp;dn=+Furious+7+2015+720p+HDCAM+NEW+ENG+x264+Pimp4003&amp;tr=udp%3A%2F%2Ftracker.openbittorrent.com%3A80&amp;tr=udp%3A%2F%2Fopen.demonii.com%3A1337&amp;tr=udp%3A%2F%2Ftracker.coppersurfer.tk%3A6969&amp;tr=udp%3A%2F%2Fexodus.desync.com%3A6969",
  "seeders": 45,
  "leechers": 3,
  "uploader": "makintos13",
  "files": 2,
  "time": 1428122578,
  "description": "screen:\n &lt;a href=&quot;\nhttp://imgmak.com/aj&quot; rel=&quot;nofollow&quot; target=&quot;_NEW&quot;&gt;\nhttp://imgmak.com/aj&lt;/a&gt; &lt;a href=&quot;\nhttp://imgmak.com/aw&quot; rel=&quot;nofollow&quot; target=&quot;_NEW&quot;&gt;\nhttp://imgmak.com/aw&lt;/a&gt; &lt;a href=&quot;\nhttp://imgmak.com/aJ&quot; rel=&quot;nofollow&quot; target=&quot;_NEW&quot;&gt;\nhttp://imgmak.com/aJ&lt;/a&gt;\n\n\ninfo:\n\nVideo\nID : 1\nFormat : MPEG-4 Visual\nFormat profile : Simple@L3\nFormat settings, BVOP : No\nFormat settings, QPel : No\nFormat settings, GMC : No warppoints\nFormat settings, Matrix : Default (H.263)\nCodec ID : 20\nDuration : 2h 4mn\nBit rate : 2 084 Kbps\nWidth : 1 280 pixels\nHeight : 536 pixels\nDisplay aspect ratio : 2.40:1\nFrame rate mode : Variable\nFrame rate : 59.940 fps\nMinimum frame rate : 59.916 fps\nMaximum frame rate : 60.157 fps\nColor space : YUV\nChroma subsampling : 4:2:0\nBit depth : 8 bits\nScan type : Progressive\nCompression mode : Lossy\nBits/(Pixel*Frame) : 0.051\nStream size : 1.81 GiB (94%)\nWriting library : ZJMedia MPEG Encoder\n\nAudio\nID : 2\nFormat : AAC\nFormat/Info : Advanced Audio Codec\nFormat profile : LC\nCodec ID : 40\nDuration : 2h 4mn\nBit rate mode : Variable\nBit rate : 128 Kbps\nChannel(s) : 2 channels\nChannel positions : Front: L R\nSampling rate : 48.0 KHz\nCompression mode : Lossy\nStream size : 114 MiB (6%)\n\nupscaled video",
  "parsed": {
    "xt": "urn:btih:8dd79aba198e149ffe9e98980f0f7369e889dcc1",
    "dn": " Furious 7 2015 720p HDCAM NEW ENG x264 Pimp4003",
    "tr": [
      "udp://exodus.desync.com:6969",
      "udp://open.demonii.com:1337",
      "udp://tracker.coppersurfer.tk:6969",
      "udp://tracker.openbittorrent.com:80"
    ],
    "infoHash": "8dd79aba198e149ffe9e98980f0f7369e889dcc1",
    "infoHashBuffer": {
      "type": "Buffer",
      "data": [
        141,
        215,
        154,
        186,
        25,
        142,
        20,
        159,
        254,
        158,
        152,
        152,
        15,
        15,
        115,
        105,
        232,
        137,
        220,
        193
      ]
    },
    "name": " Furious 7 2015 720p HDCAM NEW ENG x264 Pimp4003",
    "announce": [
      "udp://exodus.desync.com:6969",
      "udp://open.demonii.com:1337",
      "udp://tracker.coppersurfer.tk:6969",
      "udp://tracker.openbittorrent.com:80"
    ],
    "urlList": []
  },
  "previous": 2,
  "peers": 1,
  "last_updated": "2016-12-27T06:41:22.910Z"
}